<?xml version="1.0" standalone="no"?>
<!DOCTYPE svg PUBLIC "-//W3C//DTD SVG 20010904//EN"
 "http://www.w3.org/TR/2001/REC-SVG-20010904/DTD/svg10.dtd">
<svg version="1.0" xmlns="http://www.w3.org/2000/svg"
 width="700.000000pt" height="700.000000pt" viewBox="0 0 700.000000 700.000000"
 preserveAspectRatio="xMidYMid meet">
<metadata>
Created by potrace 1.11, written by Peter Selinger 2001-2013
</metadata>
<g transform="translate(0.000000,700.000000) scale(0.100000,-0.100000)"
fill="#000000" stroke="none">
<path d="M3302 6540 c-225 -34 -464 -102 -697 -197 -248 -101 -405 -200 -745
-472 -391 -313 -484 -407 -544 -557 -96 -239 -150 -680 -151 -1239 l0 -350 27
-90 c15 -49 32 -119 37 -155 14 -83 14 -454 1 -502 -6 -20 -33 -70 -60 -112
-129 -198 -130 -247 -5 -466 36 -63 92 -168 125 -233 113 -221 206 -286 507
-358 164 -38 223 -67 303 -148 79 -79 125 -163 173 -317 42 -132 78 -210 124
-263 32 -38 33 -42 33 -124 0 -88 12 -172 31 -219 14 -34 58 -48 152 -48 51 0
69 4 73 15 4 9 2 54 -3 100 -5 47 -8 85 -6 85 1 0 21 -7 43 -16 l40 -16 -3
-148 c-2 -137 0 -151 19 -177 45 -62 141 -80 186 -35 19 18 19 21 -5 156 -16
91 -21 136 -13 133 6 -2 36 -12 67 -22 l56 -18 11 -130 c7 -72 13 -132 15
-133 2 -2 42 -7 89 -10 83 -7 86 -6 98 16 9 17 11 51 7 113 l-6 90 46 -7 c25
-3 54 -6 64 -6 17 0 19 -10 19 -119 l0 -118 108 -5 c86 -5 110 -3 124 9 20 18
42 82 59 171 13 70 11 67 59 76 l35 6 0 -74 c0 -65 3 -78 24 -100 34 -36 82
-35 111 2 20 25 22 35 17 127 l-4 100 66 67 c85 86 154 202 233 392 96 231
137 307 178 331 52 30 131 25 286 -18 72 -21 149 -37 170 -37 105 0 224 103
409 355 65 88 155 198 200 245 139 144 164 218 174 525 8 252 16 273 149 403
94 91 119 129 148 227 23 76 24 268 4 375 -20 105 -17 343 10 695 14 183 20
345 18 440 -3 143 -5 154 -36 225 -160 374 -737 929 -1342 1292 -284 171 -476
242 -743 278 -126 16 -424 11 -565 -10z m-892 -2599 c14 -10 45 -48 70 -84 25
-37 87 -109 138 -160 55 -56 100 -112 112 -139 51 -116 62 -341 24 -479 -16
-57 -26 -72 -94 -139 -44 -44 -102 -89 -139 -109 -58 -31 -76 -35 -180 -42
-85 -6 -151 -18 -246 -45 -161 -45 -265 -54 -333 -29 -107 41 -207 193 -237
360 -23 134 -30 274 -16 331 33 131 147 363 214 432 66 69 91 76 307 83 163 6
204 10 250 28 59 22 90 21 130 -8z m1900 -222 c47 -18 146 -53 222 -79 84 -29
151 -59 175 -77 101 -81 212 -223 249 -320 15 -39 16 -50 5 -77 -9 -20 -16
-107 -20 -246 -7 -213 -7 -215 -36 -269 -50 -91 -194 -187 -321 -214 -97 -20
-321 31 -478 109 -83 42 -345 223 -396 274 -62 62 -153 324 -151 438 1 138
149 304 311 348 77 21 117 40 164 79 93 76 144 82 276 34z m-1144 -928 c67
-39 146 -127 184 -206 34 -70 93 -246 116 -340 18 -77 18 -164 0 -258 -24
-125 -38 -143 -161 -208 -44 -23 -108 -59 -142 -81 -74 -47 -130 -53 -167 -19
-13 12 -53 31 -89 42 -37 11 -80 31 -96 44 -32 27 -91 163 -110 253 -25 118
-8 256 39 332 16 25 32 68 36 95 6 43 15 59 65 112 32 34 76 99 100 143 23 44
53 89 67 100 37 30 96 26 158 -9z"/>
</g>
</svg>
