<?xml version="1.0" encoding="UTF-8" standalone="no"?>
<!DOCTYPE svg PUBLIC "-//W3C//DTD SVG 1.1//EN" "http://www.w3.org/Graphics/SVG/1.1/DTD/svg11.dtd">
<svg width="100%" height="100%" viewBox="0 0 315 330" version="1.1" xmlns="http://www.w3.org/2000/svg" xmlns:xlink="http://www.w3.org/1999/xlink" xml:space="preserve" xmlns:serif="http://www.serif.com/" style="fill-rule:evenodd;clip-rule:evenodd;stroke-linecap:round;stroke-linejoin:round;stroke-miterlimit:1.5;">
    <g transform="matrix(1.00665,0,0,1.00665,-1199.68,-24.4312)">
        <g transform="matrix(1.47101,0,0,1.47101,-975.87,-108.12)">
            <circle cx="1649.61" cy="300.676" r="2.535" style="fill:rgb(25,21,56);"/>
        </g>
        <g transform="matrix(1.47101,0,0,1.47101,-971.493,-106.113)">
            <circle cx="1507.64" cy="299.686" r="2.65" style="fill:rgb(25,21,56);"/>
        </g>
        <g transform="matrix(1.47101,0,0,1.47101,-977.449,-108.869)">
            <path d="M1672.52,92.459L1673.55,93.062L1685.75,103.413L1686.64,104.584L1686.96,106.022L1686.96,302.059L1686.96,302.3L1686.96,302.541L1686.96,302.779L1686.95,303.016L1686.95,303.251L1686.95,303.484L1686.94,303.715L1686.93,303.946L1686.92,304.174L1686.91,304.401L1686.9,304.626L1686.89,304.851L1686.87,305.075L1686.86,305.292L1686.85,305.408L1686.84,305.518L1686.83,305.629L1686.82,305.739L1686.8,305.85L1686.79,305.96L1686.78,306.07L1686.76,306.18L1686.75,306.29L1686.73,306.4L1686.71,306.51L1686.7,306.619L1686.68,306.729L1686.66,306.839L1686.64,306.949L1686.62,307.059L1686.59,307.169L1686.57,307.279L1686.54,307.389L1686.52,307.5L1686.49,307.611L1686.46,307.721L1686.43,307.831L1686.4,307.943L1686.37,308.054L1686.33,308.165L1686.29,308.276L1686.26,308.388L1686.22,308.499L1686.17,308.611L1686.13,308.723L1686.08,308.834L1686.04,308.947L1685.99,309.058L1685.93,309.17L1685.88,309.281L1685.82,309.393L1685.76,309.504L1685.7,309.615L1685.64,309.726L1685.57,309.836L1685.5,309.945L1685.43,310.055L1685.36,310.163L1685.28,310.27L1685.2,310.377L1685.12,310.483L1685.03,310.587L1684.95,310.69L1684.86,310.791L1684.77,310.892L1684.67,310.99L1684.57,311.087L1684.47,311.181L1684.37,311.274L1684.27,311.365L1684.16,311.453L1684.05,311.539L1683.94,311.623L1683.83,311.704L1683.71,311.783L1683.6,311.859L1683.48,311.933L1683.36,312.004L1683.24,312.072L1683.12,312.137L1683,312.2L1682.87,312.259L1682.75,312.317L1682.62,312.371L1682.5,312.423L1682.37,312.472L1682.24,312.518L1682.12,312.562L1681.99,312.604L1681.86,312.643L1681.73,312.679L1681.6,312.713L1681.47,312.745L1681.34,312.775L1681.21,312.802L1681.09,312.827L1680.96,312.85L1680.83,312.871L1680.7,312.89L1680.57,312.908L1680.44,312.923L1680.31,312.936L1680.18,312.948L1680.05,312.958L1679.91,312.967L1679.79,312.974L1679.65,312.979L1679.52,312.983L1679.39,312.985L1679.26,312.986L1679.13,312.985L1678.99,312.983L1678.86,312.979L1678.74,312.975L1678.53,312.967L1678.34,312.96L1678.14,312.953L1677.94,312.947L1677.53,312.936L1677.12,312.927L1676.7,312.919L1676.27,312.912L1675.84,312.907L1675.41,312.904L1674.98,312.901L1674.54,312.9L1674.1,312.9L1673.67,312.901L1673.24,312.902L1672.81,312.905L1672.38,312.908L1671.96,312.912L1671.54,312.916L1671.13,312.921L1670.34,312.931L1669.59,312.942L1668.88,312.953L1668.23,312.962L1667.63,312.97L1667.36,312.973L1667.11,312.975L1666.87,312.977L1666.64,312.977L1666.5,312.976L1666.36,312.973L1666.21,312.969L1666.07,312.962L1665.93,312.954L1665.79,312.944L1665.65,312.932L1665.52,312.92L1665.38,312.906L1665.25,312.891L1665.12,312.874L1664.98,312.857L1664.86,312.839L1664.73,312.819L1664.6,312.799L1664.47,312.778L1664.35,312.757L1664.23,312.734L1664.1,312.711L1663.98,312.688L1663.87,312.664L1663.75,312.639L1663.63,312.614L1663.52,312.589L1663.41,312.563L1663.29,312.536L1663.08,312.484L1662.87,312.431L1662.67,312.378L1662.48,312.325L1662.29,312.272L1662.11,312.22L1661.95,312.17L1661.79,312.121L1661.64,312.074L1661.5,312.029L1661.45,312.014L1500.71,312.014L1497.81,313.08L1496.63,313.29L1483.65,313.29L1483.55,313.289L1483.45,313.288L1483.34,313.286L1483.24,313.282L1483.13,313.278L1483.02,313.272L1482.92,313.265L1482.81,313.258L1482.71,313.249L1482.6,313.239L1482.49,313.228L1482.39,313.215L1482.28,313.202L1482.17,313.187L1482.07,313.171L1481.96,313.154L1481.86,313.136L1481.75,313.116L1481.64,313.095L1481.54,313.072L1481.43,313.049L1481.32,313.023L1481.21,312.997L1481.11,312.969L1481,312.939L1480.9,312.908L1480.79,312.876L1480.68,312.842L1480.58,312.806L1480.47,312.769L1480.37,312.73L1480.26,312.69L1480.16,312.648L1480.06,312.605L1479.95,312.559L1479.85,312.513L1479.75,312.464L1479.64,312.414L1479.54,312.362L1479.44,312.309L1479.34,312.254L1479.24,312.197L1479.14,312.139L1479.04,312.079L1478.94,312.017L1478.84,311.954L1478.75,311.889L1478.65,311.822L1478.56,311.754L1478.46,311.684L1478.37,311.613L1478.28,311.54L1478.19,311.465L1478.1,311.389L1478.01,311.312L1477.92,311.232L1477.84,311.152L1477.75,311.07L1477.67,310.987L1477.59,310.902L1477.51,310.817L1477.43,310.729L1477.35,310.641L1477.27,310.551L1477.2,310.46L1477.12,310.368L1477.05,310.275L1476.98,310.181L1476.91,310.086L1476.84,309.989L1476.77,309.892L1476.71,309.794L1476.64,309.695L1476.58,309.595L1476.52,309.494L1476.46,309.392L1476.4,309.289L1476.35,309.186L1476.29,309.082L1476.24,308.977L1476.19,308.871L1476.13,308.765L1476.09,308.658L1476.04,308.55L1475.99,308.442L1475.94,308.332L1475.9,308.223L1475.86,308.113L1475.82,308.002L1475.78,307.891L1475.74,307.779L1475.7,307.666L1475.66,307.553L1475.63,307.439L1475.6,307.325L1475.56,307.21L1475.53,307.095L1475.5,306.979L1475.47,306.863L1475.44,306.746L1475.42,306.629L1475.39,306.511L1475.37,306.392L1475.34,306.273L1475.32,306.153L1475.3,306.033L1475.28,305.913L1475.26,305.791L1475.24,305.669L1475.22,305.547L1475.21,305.424L1475.19,305.3L1475.18,305.176L1475.16,305.052L1475.15,304.926L1475.14,304.8L1475.13,304.674L1475.12,304.546L1475.11,304.419L1475.1,304.29L1475.1,304.161L1475.09,304.031L1475.09,303.901L1475.08,303.77L1475.08,303.638L1475.08,303.505L1475.08,303.372L1475.08,303.241L1475.08,302.452L1475.08,301.034L1475.09,296.455L1475.11,289.823L1475.13,281.466L1475.2,260.883L1475.27,237.33L1475.34,213.426L1475.4,191.794L1475.43,182.649L1475.45,175.055L1475.47,169.34L1475.47,167.291L1475.48,165.832L1475.48,165.231L1475.48,164.583L1475.48,163.892L1475.49,163.159L1475.49,162.386L1475.5,161.575L1475.51,160.726L1475.51,159.841L1475.53,157.973L1475.56,155.981L1475.58,153.88L1475.61,151.682L1475.64,149.399L1475.67,147.046L1475.7,144.635L1475.74,142.179L1475.77,139.691L1475.81,137.184L1475.88,132.167L1475.95,127.231L1476.03,122.482L1476.09,118.024L1476.15,113.961L1476.18,112.111L1476.2,110.399L1476.22,108.838L1476.24,107.443L1476.25,106.226L1476.26,105.2L1476.27,104.766L1476.27,104.384L1476.27,104.06L1476.27,103.785L1476.27,103.525L1476.28,103.259L1476.28,102.996L1476.29,102.735L1476.3,102.48L1476.3,102.348L1476.31,102.22L1476.31,102.092L1476.32,101.966L1476.33,101.839L1476.33,101.713L1476.34,101.588L1476.35,101.463L1476.36,101.339L1476.37,101.214L1476.38,101.091L1476.39,100.968L1476.41,100.845L1476.42,100.722L1476.44,100.6L1476.45,100.478L1476.47,100.356L1476.49,100.235L1476.5,100.114L1476.52,99.994L1476.54,99.873L1476.56,99.753L1476.58,99.633L1476.61,99.513L1476.63,99.393L1476.66,99.274L1476.68,99.155L1476.71,99.036L1476.74,98.917L1476.77,98.798L1476.8,98.68L1476.83,98.561L1476.87,98.443L1476.9,98.325L1476.94,98.207L1476.98,98.089L1477.02,97.971L1477.06,97.854L1477.11,97.737L1477.15,97.62L1477.2,97.503L1477.25,97.386L1477.3,97.27L1477.35,97.154L1477.41,97.039L1477.46,96.923L1477.53,96.809L1477.59,96.695L1477.65,96.581L1477.71,96.468L1477.78,96.356L1477.85,96.244L1477.92,96.133L1478,96.023L1478.08,95.915L1478.15,95.807L1478.24,95.7L1478.32,95.594L1478.4,95.49L1478.49,95.387L1478.58,95.286L1478.67,95.186L1478.77,95.088L1478.86,94.991L1478.96,94.896L1479.06,94.803L1479.16,94.712L1479.27,94.623L1479.37,94.535L1479.48,94.45L1479.59,94.367L1479.7,94.286L1479.81,94.208L1479.92,94.131L1480.04,94.057L1480.16,93.985L1480.27,93.915L1480.39,93.848L1480.51,93.783L1480.63,93.72L1480.75,93.659L1480.87,93.601L1480.99,93.545L1481.12,93.491L1481.24,93.439L1481.37,93.389L1481.49,93.342L1481.62,93.296L1481.74,93.253L1481.87,93.211L1482,93.172L1482.12,93.134L1482.25,93.099L1482.38,93.065L1482.51,93.033L1482.63,93.002L1482.76,92.974L1482.89,92.947L1483.02,92.921L1483.15,92.897L1483.28,92.875L1483.41,92.854L1483.54,92.835L1483.68,92.817L1483.81,92.801L1483.94,92.786L1484.07,92.772L1484.21,92.76L1484.34,92.749L1484.48,92.739L1484.61,92.73L1484.75,92.723L1484.88,92.716L1485.02,92.711L1485.15,92.707L1485.29,92.704L1485.43,92.702L1485.57,92.702L1487.43,92.699L1489.14,92.698L1490.69,92.698L1492.08,92.699L1494.32,92.701L1495.8,92.702L1495.89,92.702L1496,92.704L1496.11,92.707L1496.21,92.711L1496.32,92.716L1496.43,92.722L1496.54,92.73L1496.65,92.739L1496.77,92.749L1496.88,92.76L1497,92.773L1497.11,92.788L1497.23,92.804L1497.35,92.822L1497.47,92.841L1497.59,92.862L1497.71,92.885L1497.83,92.91L1497.96,92.938L1498.08,92.967L1498.21,92.998L1498.34,93.032L1498.47,93.069L1498.6,93.108L1498.73,93.15L1498.86,93.195L1499,93.244L1499.13,93.296L1499.27,93.351L1499.41,93.411L1499.55,93.474L1499.69,93.542L1499.83,93.615L1499.97,93.694L1500.11,93.771L1500.19,93.821L1500.26,93.866L1500.33,93.913L1500.4,93.962L1500.48,94.012L1500.55,94.064L1500.62,94.118L1500.69,94.173L1500.77,94.231L1500.84,94.29L1500.91,94.351L1500.98,94.414L1501.05,94.479L1501.12,94.546L1501.19,94.615L1501.26,94.686L1501.33,94.76L1501.4,94.835L1501.47,94.913L1501.54,94.993L1501.6,95.075L1501.61,95.084L1502.08,95.082L1502.35,95.079L1502.63,95.077L1502.9,95.074L1503.16,95.07L1503.42,95.065L1503.68,95.06L1503.92,95.054L1504.14,95.047L1504.28,95.042L1504.28,95.041L1504.36,94.969L1504.45,94.895L1504.54,94.819L1504.63,94.742L1504.73,94.664L1504.84,94.585L1504.94,94.506L1505.06,94.427L1505.18,94.348L1505.3,94.271L1505.43,94.194L1505.56,94.119L1505.69,94.046L1505.83,93.975L1505.98,93.905L1506.12,93.839L1506.27,93.774L1506.42,93.713L1506.57,93.658L1506.66,93.626L1506.74,93.599L1506.82,93.572L1506.9,93.546L1506.98,93.521L1507.06,93.496L1507.14,93.472L1507.23,93.45L1507.31,93.428L1507.4,93.406L1507.48,93.386L1507.57,93.366L1507.66,93.347L1507.74,93.329L1507.83,93.312L1507.92,93.295L1508.01,93.279L1508.1,93.264L1508.19,93.25L1508.28,93.237L1508.37,93.224L1508.46,93.212L1508.56,93.201L1508.65,93.191L1508.74,93.182L1508.84,93.173L1508.93,93.165L1509.03,93.158L1509.13,93.152L1509.22,93.146L1509.32,93.141L1509.42,93.137L1509.52,93.134L1509.62,93.131L1509.88,93.127L1510.3,93.123L1510.88,93.117L1511.61,93.111L1513.54,93.097L1516.03,93.081L1519.05,93.062L1522.56,93.041L1526.5,93.017L1530.84,92.992L1540.52,92.938L1551.23,92.879L1562.63,92.818L1574.34,92.755L1586.02,92.694L1597.3,92.634L1617.25,92.531L1636.64,92.431L1637.96,92.687L1639.07,93.427L1639.82,94.539L1640.05,95.707L1642.51,93.252L1643.62,92.51L1644.93,92.25L1671.34,92.25L1672.52,92.459ZM1644.93,95.671L1641.45,99.149L1636.66,99.149L1636.66,95.853L1617.26,95.952L1597.32,96.056L1586.04,96.115L1574.36,96.177L1562.64,96.239L1551.25,96.301L1540.54,96.36L1530.86,96.414L1526.52,96.439L1522.58,96.462L1519.08,96.483L1516.05,96.502L1513.56,96.519L1511.64,96.533L1510.91,96.539L1510.34,96.544L1509.93,96.548L1509.69,96.552L1509.62,96.554L1509.55,96.556L1509.48,96.559L1509.41,96.563L1509.34,96.567L1509.27,96.571L1509.2,96.576L1509.14,96.582L1509.07,96.588L1509.01,96.594L1508.94,96.601L1508.88,96.608L1508.82,96.616L1508.76,96.624L1508.7,96.633L1508.64,96.642L1508.59,96.652L1508.53,96.662L1508.48,96.672L1508.42,96.683L1508.37,96.694L1508.32,96.705L1508.26,96.717L1508.21,96.729L1508.16,96.742L1508.11,96.755L1508.07,96.768L1508.02,96.781L1507.97,96.795L1507.93,96.809L1507.88,96.824L1507.84,96.839L1507.79,96.854L1507.75,96.869L1507.67,96.901L1507.59,96.933L1507.51,96.966L1507.43,97.001L1507.36,97.036L1507.29,97.072L1507.23,97.108L1507.16,97.145L1507.1,97.183L1507.04,97.221L1506.98,97.26L1506.92,97.298L1506.87,97.338L1506.82,97.377L1506.77,97.417L1506.72,97.456L1506.67,97.496L1506.62,97.536L1506.58,97.575L1506.54,97.614L1506.5,97.653L1506.45,97.692L1506.42,97.731L1506.34,97.806L1506.27,97.879L1506.2,97.949L1506.13,98.016L1506.1,98.048L1506.07,98.079L1506.04,98.109L1506,98.138L1505.97,98.166L1505.94,98.192L1505.91,98.217L1505.87,98.24L1505.84,98.262L1505.81,98.283L1505.77,98.301L1505.74,98.318L1505.7,98.334L1505.67,98.347L1505.65,98.353L1505.63,98.359L1505.61,98.364L1505.59,98.368L1505.55,98.377L1505.51,98.385L1505.45,98.393L1505.39,98.4L1505.32,98.407L1505.25,98.414L1505.17,98.421L1505.09,98.427L1505,98.433L1504.9,98.439L1504.81,98.444L1504.7,98.449L1504.49,98.458L1504.26,98.467L1504.01,98.474L1503.76,98.481L1503.49,98.486L1503.22,98.491L1502.94,98.495L1502.66,98.498L1502.38,98.501L1502.1,98.503L1501.55,98.506L1501.02,98.507L1500.53,98.506L1500.1,98.505L1499.74,98.503L1499.46,98.501L1499.21,98.499L1499.22,98.455L1499.23,98.412L1499.23,98.369L1499.24,98.326L1499.24,98.284L1499.24,98.243L1499.24,98.202L1499.24,98.161L1499.24,98.121L1499.24,98.081L1499.24,98.042L1499.24,98.004L1499.23,97.966L1499.23,97.928L1499.22,97.891L1499.21,97.854L1499.21,97.818L1499.2,97.782L1499.19,97.747L1499.18,97.712L1499.17,97.678L1499.16,97.644L1499.15,97.611L1499.14,97.578L1499.12,97.545L1499.11,97.513L1499.09,97.482L1499.08,97.451L1499.06,97.42L1499.05,97.39L1499.03,97.36L1499.01,97.33L1498.99,97.301L1498.97,97.273L1498.95,97.245L1498.93,97.217L1498.91,97.19L1498.89,97.163L1498.87,97.136L1498.85,97.11L1498.82,97.085L1498.8,97.06L1498.78,97.035L1498.75,97.01L1498.72,96.986L1498.7,96.963L1498.67,96.94L1498.64,96.917L1498.62,96.894L1498.59,96.872L1498.56,96.85L1498.53,96.829L1498.5,96.808L1498.47,96.788L1498.44,96.768L1498.41,96.748L1498.38,96.728L1498.35,96.709L1498.29,96.672L1498.22,96.637L1498.16,96.602L1498.09,96.569L1498.02,96.538L1497.95,96.508L1497.88,96.479L1497.81,96.452L1497.74,96.425L1497.66,96.4L1497.59,96.377L1497.51,96.354L1497.44,96.333L1497.36,96.313L1497.28,96.294L1497.21,96.276L1497.13,96.259L1497.05,96.243L1496.98,96.229L1496.9,96.215L1496.82,96.203L1496.74,96.191L1496.67,96.181L1496.59,96.171L1496.51,96.162L1496.44,96.155L1496.36,96.148L1496.29,96.142L1496.21,96.137L1496.14,96.133L1496.07,96.129L1496,96.127L1495.93,96.125L1495.86,96.124L1495.79,96.123L1494.31,96.122L1492.08,96.12L1490.69,96.12L1489.14,96.12L1487.44,96.121L1485.58,96.123L1485.46,96.124L1485.35,96.125L1485.24,96.128L1485.13,96.131L1485.02,96.135L1484.92,96.14L1484.81,96.146L1484.71,96.152L1484.61,96.16L1484.51,96.168L1484.41,96.177L1484.31,96.188L1484.21,96.199L1484.12,96.21L1484.02,96.223L1483.93,96.237L1483.84,96.251L1483.75,96.267L1483.66,96.283L1483.57,96.3L1483.48,96.318L1483.4,96.337L1483.31,96.357L1483.23,96.378L1483.15,96.4L1483.07,96.422L1482.99,96.446L1482.91,96.47L1482.83,96.496L1482.76,96.522L1482.68,96.549L1482.61,96.577L1482.54,96.606L1482.47,96.636L1482.39,96.667L1482.33,96.698L1482.26,96.731L1482.19,96.764L1482.13,96.799L1482.06,96.834L1482,96.871L1481.93,96.908L1481.87,96.946L1481.81,96.985L1481.75,97.025L1481.7,97.066L1481.64,97.108L1481.58,97.151L1481.53,97.195L1481.47,97.24L1481.42,97.285L1481.37,97.332L1481.32,97.38L1481.27,97.428L1481.22,97.478L1481.17,97.528L1481.12,97.58L1481.07,97.632L1481.03,97.685L1480.98,97.74L1480.94,97.795L1480.9,97.851L1480.86,97.909L1480.82,97.967L1480.78,98.026L1480.74,98.086L1480.7,98.147L1480.66,98.209L1480.62,98.272L1480.59,98.336L1480.55,98.401L1480.52,98.467L1480.49,98.534L1480.45,98.602L1480.42,98.671L1480.39,98.741L1480.36,98.812L1480.33,98.884L1480.3,98.957L1480.28,99.031L1480.25,99.106L1480.22,99.182L1480.2,99.259L1480.17,99.337L1480.15,99.416L1480.12,99.496L1480.1,99.577L1480.08,99.659L1480.06,99.742L1480.04,99.827L1480.02,99.912L1480,99.998L1479.98,100.085L1479.96,100.173L1479.95,100.262L1479.93,100.352L1479.91,100.444L1479.9,100.536L1479.88,100.629L1479.87,100.724L1479.86,100.819L1479.85,100.915L1479.83,101.013L1479.82,101.111L1479.81,101.211L1479.8,101.312L1479.79,101.413L1479.78,101.516L1479.77,101.62L1479.76,101.725L1479.76,101.831L1479.75,101.937L1479.74,102.045L1479.74,102.155L1479.73,102.265L1479.72,102.376L1479.72,102.488L1479.71,102.601L1479.71,102.831L1479.7,103.065L1479.7,103.304L1479.69,103.547L1479.69,103.794L1479.69,104.072L1479.69,104.405L1479.69,104.793L1479.69,105.233L1479.67,106.264L1479.66,107.485L1479.64,108.883L1479.62,110.445L1479.6,112.159L1479.57,114.01L1479.51,118.074L1479.45,122.533L1479.38,127.282L1479.3,132.218L1479.23,137.234L1479.19,139.74L1479.16,142.227L1479.12,144.682L1479.09,147.092L1479.06,149.444L1479.03,151.725L1479,153.921L1478.98,156.02L1478.95,158.009L1478.94,159.875L1478.93,160.757L1478.92,161.603L1478.91,162.412L1478.91,163.182L1478.9,163.912L1478.9,164.599L1478.9,165.242L1478.9,165.839L1478.89,167.298L1478.89,169.349L1478.87,175.064L1478.85,182.659L1478.83,191.804L1478.76,213.436L1478.69,237.34L1478.62,260.894L1478.56,281.476L1478.53,289.833L1478.51,296.464L1478.5,301.042L1478.5,302.458L1478.5,303.238L1478.5,303.35L1478.5,303.46L1478.5,303.569L1478.5,303.678L1478.51,303.785L1478.51,303.891L1478.52,303.996L1478.52,304.1L1478.53,304.203L1478.53,304.305L1478.54,304.406L1478.55,304.506L1478.56,304.605L1478.57,304.703L1478.58,304.8L1478.59,304.895L1478.6,304.99L1478.61,305.084L1478.63,305.177L1478.64,305.268L1478.65,305.359L1478.67,305.449L1478.68,305.537L1478.7,305.625L1478.72,305.712L1478.74,305.797L1478.76,305.882L1478.77,305.966L1478.79,306.048L1478.82,306.13L1478.84,306.211L1478.86,306.291L1478.88,306.369L1478.9,306.447L1478.93,306.524L1478.95,306.6L1478.98,306.675L1479,306.749L1479.03,306.822L1479.06,306.894L1479.08,306.965L1479.11,307.035L1479.14,307.104L1479.17,307.173L1479.2,307.24L1479.23,307.306L1479.26,307.372L1479.29,307.437L1479.33,307.5L1479.36,307.563L1479.39,307.625L1479.43,307.686L1479.46,307.745L1479.5,307.805L1479.54,307.863L1479.57,307.92L1479.61,307.976L1479.65,308.032L1479.69,308.086L1479.73,308.14L1479.77,308.193L1479.81,308.245L1479.85,308.296L1479.89,308.346L1479.93,308.395L1479.97,308.443L1480.02,308.491L1480.06,308.537L1480.11,308.583L1480.15,308.628L1480.19,308.672L1480.24,308.715L1480.29,308.758L1480.34,308.799L1480.38,308.84L1480.43,308.88L1480.48,308.919L1480.53,308.957L1480.58,308.994L1480.63,309.031L1480.68,309.066L1480.73,309.101L1480.79,309.135L1480.84,309.169L1480.89,309.201L1480.95,309.233L1481,309.263L1481.06,309.293L1481.11,309.322L1481.17,309.351L1481.22,309.378L1481.28,309.405L1481.34,309.431L1481.4,309.456L1481.45,309.481L1481.51,309.505L1481.57,309.527L1481.63,309.55L1481.69,309.571L1481.76,309.591L1481.82,309.611L1481.88,309.63L1481.94,309.649L1482,309.666L1482.07,309.683L1482.13,309.699L1482.2,309.714L1482.26,309.729L1482.33,309.742L1482.39,309.756L1482.46,309.768L1482.53,309.779L1482.59,309.79L1482.66,309.801L1482.73,309.81L1482.8,309.819L1482.87,309.827L1482.94,309.834L1483.01,309.841L1483.08,309.846L1483.15,309.852L1483.22,309.856L1483.29,309.86L1483.37,309.863L1483.44,309.865L1483.51,309.867L1483.59,309.868L1483.66,309.868L1496.63,309.868L1500.1,308.592L1662.03,308.592L1662.06,308.603L1662.15,308.634L1662.28,308.681L1662.37,308.71L1662.46,308.743L1662.57,308.778L1662.68,308.816L1662.81,308.856L1662.94,308.897L1663.09,308.94L1663.24,308.984L1663.39,309.029L1663.56,309.074L1663.73,309.119L1663.91,309.164L1664.09,309.208L1664.18,309.23L1664.27,309.251L1664.37,309.272L1664.46,309.293L1664.56,309.313L1664.65,309.332L1664.75,309.351L1664.85,309.37L1664.95,309.388L1665.05,309.405L1665.15,309.422L1665.25,309.438L1665.35,309.453L1665.45,309.467L1665.55,309.48L1665.65,309.493L1665.75,309.504L1665.85,309.514L1665.95,309.524L1666.05,309.532L1666.15,309.539L1666.25,309.545L1666.35,309.55L1666.45,309.553L1666.55,309.555L1666.65,309.556L1666.85,309.555L1667.08,309.554L1667.33,309.552L1667.59,309.549L1668.18,309.541L1668.83,309.531L1669.54,309.521L1670.29,309.51L1671.09,309.499L1671.5,309.495L1671.92,309.49L1672.35,309.487L1672.78,309.483L1673.22,309.481L1673.66,309.479L1674.1,309.478L1674.55,309.479L1674.99,309.48L1675.43,309.482L1675.88,309.486L1676.32,309.491L1676.76,309.498L1677.19,309.506L1677.62,309.516L1678.04,309.527L1678.25,309.534L1678.46,309.54L1678.66,309.548L1678.87,309.556L1678.97,309.559L1679.07,309.562L1679.16,309.563L1679.26,309.564L1679.35,309.563L1679.44,309.562L1679.54,309.559L1679.63,309.556L1679.72,309.551L1679.8,309.545L1679.89,309.539L1679.98,309.531L1680.06,309.522L1680.14,309.513L1680.22,309.502L1680.3,309.49L1680.38,309.477L1680.46,309.463L1680.53,309.449L1680.61,309.433L1680.68,309.416L1680.75,309.398L1680.83,309.379L1680.89,309.36L1680.96,309.339L1681.03,309.317L1681.1,309.294L1681.16,309.27L1681.23,309.246L1681.29,309.22L1681.35,309.193L1681.41,309.165L1681.47,309.136L1681.53,309.107L1681.59,309.076L1681.64,309.044L1681.7,309.011L1681.75,308.977L1681.8,308.943L1681.86,308.907L1681.91,308.87L1681.96,308.833L1682.01,308.794L1682.05,308.754L1682.1,308.714L1682.15,308.672L1682.19,308.63L1682.24,308.586L1682.28,308.542L1682.32,308.496L1682.36,308.45L1682.4,308.402L1682.44,308.354L1682.48,308.305L1682.52,308.254L1682.55,308.203L1682.59,308.151L1682.62,308.097L1682.66,308.043L1682.69,307.988L1682.72,307.932L1682.75,307.875L1682.79,307.817L1682.82,307.758L1682.84,307.698L1682.87,307.637L1682.9,307.576L1682.93,307.513L1682.95,307.449L1682.98,307.384L1683,307.319L1683.03,307.252L1683.05,307.185L1683.07,307.116L1683.1,307.047L1683.12,306.977L1683.14,306.906L1683.16,306.833L1683.17,306.76L1683.19,306.686L1683.21,306.611L1683.23,306.535L1683.25,306.458L1683.26,306.381L1683.28,306.302L1683.29,306.222L1683.31,306.142L1683.32,306.06L1683.33,305.978L1683.35,305.895L1683.36,305.81L1683.37,305.725L1683.38,305.639L1683.39,305.552L1683.4,305.464L1683.41,305.375L1683.42,305.286L1683.43,305.195L1683.44,305.103L1683.45,305.011L1683.46,304.823L1683.48,304.632L1683.49,304.437L1683.5,304.238L1683.51,304.036L1683.51,303.831L1683.52,303.621L1683.53,303.409L1683.53,303.192L1683.53,302.972L1683.54,302.749L1683.54,302.522L1683.54,302.291L1683.54,302.057L1683.54,106.022L1671.34,95.671L1644.93,95.671Z" style="fill:rgb(237,50,96);"/>
        </g>
        <g transform="matrix(1.47101,0,0,1.47101,-977.449,-108.869)">
            <path d="M1478.9,165.839C1478.91,153.589 1479.69,109.113 1479.69,103.794C1479.69,98.475 1480.72,96.131 1485.58,96.123C1490.73,96.116 1494.35,96.123 1495.79,96.123C1497.23,96.123 1499.52,96.609 1499.21,98.499C1499.21,98.499 1504.78,98.553 1505.59,98.368C1506.4,98.184 1506.54,96.62 1509.69,96.552C1512.85,96.484 1636.66,95.853 1636.66,95.853L1636.66,99.149L1641.45,99.149L1644.93,95.671L1671.34,95.671L1683.54,106.022C1683.54,106.022 1683.54,297.027 1683.54,302.057C1683.54,307.087 1683.17,309.73 1678.87,309.556C1674.56,309.381 1668.73,309.556 1666.65,309.556C1664.57,309.556 1662.03,308.592 1662.03,308.592L1500.1,308.592L1496.63,309.868C1496.63,309.868 1486.83,309.868 1483.66,309.868C1480.49,309.868 1478.5,308.018 1478.5,303.238C1478.5,298.458 1478.88,178.089 1478.9,165.839Z" style="fill:none;stroke:rgb(242,242,242);stroke-width:3.42px;"/>
        </g>
        <g transform="matrix(1.47101,0,0,1.47101,-977.449,-108.869)">
            <path d="M1683.54,106.022L1683.54,302.057L1683.54,302.291L1683.54,302.522L1683.54,302.749L1683.53,302.972L1683.53,303.192L1683.53,303.409L1683.52,303.621L1683.51,303.831L1683.51,304.036L1683.5,304.238L1683.49,304.437L1683.48,304.632L1683.46,304.823L1683.45,305.011L1683.44,305.103L1683.43,305.195L1683.42,305.286L1683.41,305.375L1683.4,305.464L1683.39,305.552L1683.38,305.639L1683.37,305.725L1683.36,305.81L1683.35,305.895L1683.33,305.978L1683.32,306.06L1683.31,306.142L1683.29,306.222L1683.28,306.302L1683.26,306.381L1683.25,306.458L1683.23,306.535L1683.21,306.611L1683.19,306.686L1683.17,306.76L1683.16,306.833L1683.14,306.906L1683.12,306.977L1683.1,307.047L1683.07,307.116L1683.05,307.185L1683.03,307.252L1683,307.319L1682.98,307.384L1682.95,307.449L1682.93,307.513L1682.9,307.576L1682.87,307.637L1682.84,307.698L1682.82,307.758L1682.79,307.817L1682.75,307.875L1682.72,307.932L1682.69,307.988L1682.66,308.043L1682.62,308.097L1682.59,308.151L1682.55,308.203L1682.52,308.254L1682.48,308.305L1682.44,308.354L1682.4,308.402L1682.36,308.45L1682.32,308.496L1682.28,308.542L1682.24,308.586L1682.19,308.63L1682.15,308.672L1682.1,308.714L1682.05,308.754L1682.01,308.794L1681.96,308.833L1681.91,308.87L1681.86,308.907L1681.8,308.943L1681.75,308.977L1681.7,309.011L1681.64,309.044L1681.59,309.076L1681.53,309.107L1681.47,309.136L1681.41,309.165L1681.35,309.193L1681.29,309.22L1681.23,309.246L1681.16,309.27L1681.1,309.294L1681.03,309.317L1680.96,309.339L1680.89,309.36L1680.83,309.379L1680.75,309.398L1680.68,309.416L1680.61,309.433L1680.53,309.449L1680.46,309.463L1680.38,309.477L1680.3,309.49L1680.22,309.502L1680.14,309.513L1680.06,309.522L1679.98,309.531L1679.89,309.539L1679.8,309.545L1679.72,309.551L1679.63,309.556L1679.54,309.559L1679.44,309.562L1679.35,309.563L1679.26,309.564L1679.16,309.563L1679.07,309.562L1678.97,309.559L1678.87,309.556L1678.66,309.548L1678.46,309.54L1678.25,309.534L1678.04,309.527L1677.62,309.516L1677.19,309.506L1676.76,309.498L1676.32,309.491L1675.88,309.486L1675.43,309.482L1674.99,309.48L1674.55,309.479L1674.1,309.478L1673.66,309.479L1673.22,309.481L1672.78,309.483L1672.35,309.487L1671.92,309.49L1671.5,309.495L1671.09,309.499L1670.29,309.51L1669.54,309.521L1668.83,309.531L1668.18,309.541L1667.59,309.549L1667.33,309.552L1667.08,309.554L1666.85,309.555L1666.65,309.556L1666.55,309.555L1666.45,309.553L1666.35,309.55L1666.25,309.545L1666.15,309.539L1666.05,309.532L1665.95,309.524L1665.85,309.514L1665.75,309.504L1665.65,309.493L1665.55,309.48L1665.45,309.467L1665.35,309.453L1665.25,309.438L1665.15,309.422L1665.05,309.405L1664.95,309.388L1664.85,309.37L1664.75,309.351L1664.65,309.332L1664.56,309.313L1664.46,309.293L1664.37,309.272L1664.27,309.251L1664.18,309.23L1664.09,309.208L1663.91,309.164L1663.73,309.119L1663.56,309.074L1663.39,309.029L1663.24,308.984L1663.09,308.94L1662.94,308.897L1662.81,308.856L1662.68,308.816L1662.57,308.778L1662.46,308.743L1662.37,308.71L1662.28,308.681L1662.15,308.634L1662.06,308.603L1662.03,308.592L1500.1,308.592L1496.63,309.868L1483.66,309.868L1483.59,309.868L1483.51,309.867L1483.44,309.865L1483.37,309.863L1483.29,309.86L1483.22,309.856L1483.15,309.852L1483.08,309.846L1483.01,309.841L1482.94,309.834L1482.87,309.827L1482.8,309.819L1482.73,309.81L1482.66,309.801L1482.59,309.79L1482.53,309.779L1482.46,309.768L1482.39,309.756L1482.33,309.742L1482.26,309.729L1482.2,309.714L1482.13,309.699L1482.07,309.683L1482,309.666L1481.94,309.649L1481.88,309.63L1481.82,309.611L1481.76,309.591L1481.69,309.571L1481.63,309.55L1481.57,309.527L1481.51,309.505L1481.45,309.481L1481.4,309.456L1481.34,309.431L1481.28,309.405L1481.22,309.378L1481.17,309.351L1481.11,309.322L1481.06,309.293L1481,309.263L1480.95,309.233L1480.89,309.201L1480.84,309.169L1480.79,309.135L1480.73,309.101L1480.68,309.066L1480.63,309.031L1480.58,308.994L1480.53,308.957L1480.48,308.919L1480.43,308.88L1480.38,308.84L1480.34,308.799L1480.29,308.758L1480.24,308.715L1480.19,308.672L1480.15,308.628L1480.11,308.583L1480.06,308.537L1480.02,308.491L1479.97,308.443L1479.93,308.395L1479.89,308.346L1479.85,308.296L1479.81,308.245L1479.77,308.193L1479.73,308.14L1479.69,308.086L1479.65,308.032L1479.61,307.976L1479.57,307.92L1479.54,307.863L1479.5,307.805L1479.46,307.745L1479.43,307.686L1479.39,307.625L1479.36,307.563L1479.33,307.5L1479.29,307.437L1479.26,307.372L1479.23,307.306L1479.2,307.24L1479.17,307.173L1479.14,307.104L1479.11,307.035L1479.08,306.965L1479.06,306.894L1479.03,306.822L1479,306.749L1478.98,306.675L1478.95,306.6L1478.93,306.524L1478.9,306.447L1478.88,306.369L1478.86,306.291L1478.84,306.211L1478.82,306.13L1478.79,306.048L1478.77,305.966L1478.76,305.882L1478.74,305.797L1478.72,305.712L1478.7,305.625L1478.68,305.537L1478.67,305.449L1478.65,305.359L1478.64,305.268L1478.63,305.177L1478.61,305.084L1478.6,304.99L1478.59,304.895L1478.58,304.8L1478.57,304.703L1478.56,304.605L1478.55,304.506L1478.54,304.406L1478.53,304.305L1478.53,304.203L1478.52,304.1L1478.52,303.996L1478.51,303.891L1478.51,303.785L1478.5,303.678L1478.5,303.569L1478.5,303.46L1478.5,303.35L1478.5,303.238L1478.5,302.458L1478.5,301.042L1478.51,296.464L1478.53,289.833L1478.56,281.476L1478.62,260.894L1478.69,237.34L1478.76,213.436L1478.83,191.804L1478.85,182.659L1478.87,175.064L1478.89,169.349L1478.89,167.298L1478.9,165.839L1478.9,165.242L1478.9,164.599L1478.9,163.912L1478.91,163.182L1478.91,162.412L1478.92,161.603L1478.93,160.757L1478.94,159.875L1478.95,158.009L1478.98,156.02L1479,153.921L1479.03,151.725L1479.06,149.444L1479.09,147.092L1479.12,144.682L1479.16,142.227L1479.19,139.74L1479.23,137.234L1479.3,132.218L1479.38,127.282L1479.45,122.533L1479.51,118.074L1479.57,114.01L1479.6,112.159L1479.62,110.445L1479.64,108.883L1479.66,107.485L1479.67,106.264L1479.69,105.233L1479.69,104.793L1479.69,104.405L1479.69,104.072L1479.69,103.794L1479.69,103.547L1479.7,103.304L1479.7,103.065L1479.71,102.831L1479.71,102.601L1479.72,102.488L1479.72,102.376L1479.73,102.265L1479.74,102.155L1479.74,102.045L1479.75,101.937L1479.76,101.831L1479.76,101.725L1479.77,101.62L1479.78,101.516L1479.79,101.413L1479.8,101.312L1479.81,101.211L1479.82,101.111L1479.83,101.013L1479.85,100.915L1479.86,100.819L1479.87,100.724L1479.88,100.629L1479.9,100.536L1479.91,100.444L1479.93,100.352L1479.95,100.262L1479.96,100.173L1479.98,100.085L1480,99.998L1480.02,99.912L1480.04,99.827L1480.06,99.742L1480.08,99.659L1480.1,99.577L1480.12,99.496L1480.15,99.416L1480.17,99.337L1480.2,99.259L1480.22,99.182L1480.25,99.106L1480.28,99.031L1480.3,98.957L1480.33,98.884L1480.36,98.812L1480.39,98.741L1480.42,98.671L1480.45,98.602L1480.49,98.534L1480.52,98.467L1480.55,98.401L1480.59,98.336L1480.62,98.272L1480.66,98.209L1480.7,98.147L1480.74,98.086L1480.78,98.026L1480.82,97.967L1480.86,97.909L1480.9,97.851L1480.94,97.795L1480.98,97.74L1481.03,97.685L1481.07,97.632L1481.12,97.58L1481.17,97.528L1481.22,97.478L1481.27,97.428L1481.32,97.38L1481.37,97.332L1481.42,97.285L1481.47,97.24L1481.53,97.195L1481.58,97.151L1481.64,97.108L1481.7,97.066L1481.75,97.025L1481.81,96.985L1481.87,96.946L1481.93,96.908L1482,96.871L1482.06,96.834L1482.13,96.799L1482.19,96.764L1482.26,96.731L1482.33,96.698L1482.39,96.667L1482.47,96.636L1482.54,96.606L1482.61,96.577L1482.68,96.549L1482.76,96.522L1482.83,96.496L1482.91,96.47L1482.99,96.446L1483.07,96.422L1483.15,96.4L1483.23,96.378L1483.31,96.357L1483.4,96.337L1483.48,96.318L1483.57,96.3L1483.66,96.283L1483.75,96.267L1483.84,96.251L1483.93,96.237L1484.02,96.223L1484.12,96.21L1484.21,96.199L1484.31,96.188L1484.41,96.177L1484.51,96.168L1484.61,96.16L1484.71,96.152L1484.81,96.146L1484.92,96.14L1485.02,96.135L1485.13,96.131L1485.24,96.128L1485.35,96.125L1485.46,96.124L1485.58,96.123L1487.44,96.121L1489.14,96.12L1490.69,96.12L1492.08,96.12L1494.31,96.122L1495.79,96.123L1495.86,96.124L1495.93,96.125L1496,96.127L1496.07,96.129L1496.14,96.133L1496.21,96.137L1496.29,96.142L1496.36,96.148L1496.44,96.155L1496.51,96.162L1496.59,96.171L1496.67,96.181L1496.74,96.191L1496.82,96.203L1496.9,96.215L1496.98,96.229L1497.05,96.243L1497.13,96.259L1497.21,96.276L1497.28,96.294L1497.36,96.313L1497.44,96.333L1497.51,96.354L1497.59,96.377L1497.66,96.4L1497.74,96.425L1497.81,96.452L1497.88,96.479L1497.95,96.508L1498.02,96.538L1498.09,96.569L1498.16,96.602L1498.22,96.637L1498.29,96.672L1498.35,96.709L1498.38,96.728L1498.41,96.748L1498.44,96.768L1498.47,96.788L1498.5,96.808L1498.53,96.829L1498.56,96.85L1498.59,96.872L1498.62,96.894L1498.64,96.917L1498.67,96.94L1498.7,96.963L1498.72,96.986L1498.75,97.01L1498.78,97.035L1498.8,97.06L1498.82,97.085L1498.85,97.11L1498.87,97.136L1498.89,97.163L1498.91,97.19L1498.93,97.217L1498.95,97.245L1498.97,97.273L1498.99,97.301L1499.01,97.33L1499.03,97.36L1499.05,97.39L1499.06,97.42L1499.08,97.451L1499.09,97.482L1499.11,97.513L1499.12,97.545L1499.14,97.578L1499.15,97.611L1499.16,97.644L1499.17,97.678L1499.18,97.712L1499.19,97.747L1499.2,97.782L1499.21,97.818L1499.21,97.854L1499.22,97.891L1499.23,97.928L1499.23,97.966L1499.24,98.004L1499.24,98.042L1499.24,98.081L1499.24,98.121L1499.24,98.161L1499.24,98.202L1499.24,98.243L1499.24,98.284L1499.24,98.326L1499.23,98.369L1499.23,98.412L1499.22,98.455L1499.21,98.499L1499.46,98.501L1499.74,98.503L1500.1,98.505L1500.53,98.506L1501.02,98.507L1501.55,98.506L1502.1,98.503L1502.38,98.501L1502.66,98.498L1502.94,98.495L1503.22,98.491L1503.49,98.486L1503.76,98.481L1504.01,98.474L1504.26,98.467L1504.49,98.458L1504.7,98.449L1504.81,98.444L1504.9,98.439L1505,98.433L1505.09,98.427L1505.17,98.421L1505.25,98.414L1505.32,98.407L1505.39,98.4L1505.45,98.393L1505.51,98.385L1505.55,98.377L1505.59,98.368L1505.61,98.364L1505.63,98.359L1505.65,98.353L1505.67,98.347L1505.7,98.334L1505.74,98.318L1505.77,98.301L1505.81,98.283L1505.84,98.262L1505.87,98.24L1505.91,98.217L1505.94,98.192L1505.97,98.166L1506,98.138L1506.04,98.109L1506.07,98.079L1506.1,98.048L1506.13,98.016L1506.2,97.949L1506.27,97.879L1506.34,97.806L1506.42,97.731L1506.45,97.692L1506.5,97.653L1506.54,97.614L1506.58,97.575L1506.62,97.536L1506.67,97.496L1506.72,97.456L1506.77,97.417L1506.82,97.377L1506.87,97.338L1506.92,97.298L1506.98,97.26L1507.04,97.221L1507.1,97.183L1507.16,97.145L1507.23,97.108L1507.29,97.072L1507.36,97.036L1507.43,97.001L1507.51,96.966L1507.59,96.933L1507.67,96.901L1507.75,96.869L1507.79,96.854L1507.84,96.839L1507.88,96.824L1507.93,96.809L1507.97,96.795L1508.02,96.781L1508.07,96.768L1508.11,96.755L1508.16,96.742L1508.21,96.729L1508.26,96.717L1508.32,96.705L1508.37,96.694L1508.42,96.683L1508.48,96.672L1508.53,96.662L1508.59,96.652L1508.64,96.642L1508.7,96.633L1508.76,96.624L1508.82,96.616L1508.88,96.608L1508.94,96.601L1509.01,96.594L1509.07,96.588L1509.14,96.582L1509.2,96.576L1509.27,96.571L1509.34,96.567L1509.41,96.563L1509.48,96.559L1509.55,96.556L1509.62,96.554L1509.69,96.552L1509.93,96.548L1510.34,96.544L1510.91,96.539L1511.64,96.533L1513.56,96.519L1516.05,96.502L1519.08,96.483L1522.58,96.462L1526.52,96.439L1530.86,96.414L1540.54,96.36L1551.25,96.301L1562.64,96.239L1574.36,96.177L1586.04,96.115L1597.32,96.056L1617.26,95.952L1636.66,95.853L1636.66,99.149L1641.45,99.149L1644.93,95.671L1671.34,95.671L1683.54,106.022ZM1645.82,97.832L1642.98,100.677L1642.28,101.145L1641.45,101.31L1636.66,101.31L1635.83,101.145L1635.13,100.677L1634.66,99.976L1634.5,99.149L1634.5,98.025L1617.28,98.113L1597.33,98.217L1586.05,98.276L1574.37,98.338L1562.66,98.4L1551.26,98.462L1540.55,98.521L1530.87,98.575L1526.54,98.6L1522.59,98.623L1519.09,98.644L1516.07,98.663L1513.58,98.68L1511.65,98.694L1510.92,98.7L1510.36,98.705L1509.96,98.709L1509.74,98.713L1509.68,98.714L1509.63,98.716L1509.57,98.718L1509.52,98.721L1509.47,98.724L1509.42,98.727L1509.37,98.731L1509.33,98.734L1509.28,98.739L1509.23,98.743L1509.19,98.748L1509.15,98.753L1509.11,98.758L1509.07,98.764L1509.03,98.77L1508.99,98.775L1508.95,98.782L1508.92,98.788L1508.88,98.794L1508.85,98.801L1508.82,98.807L1508.79,98.814L1508.76,98.821L1508.73,98.828L1508.7,98.835L1508.67,98.842L1508.65,98.849L1508.62,98.856L1508.6,98.864L1508.58,98.871L1508.55,98.878L1508.53,98.885L1508.51,98.892L1508.5,98.897L1508.45,98.914L1508.42,98.928L1508.38,98.942L1508.36,98.956L1508.33,98.969L1508.3,98.983L1508.28,98.996L1508.25,99.009L1508.23,99.022L1508.21,99.035L1508.19,99.049L1508.17,99.062L1508.15,99.076L1508.13,99.091L1508.11,99.106L1508.09,99.122L1508.07,99.139L1508.05,99.157L1508.03,99.176L1508.01,99.196L1507.99,99.218L1507.96,99.242L1507.94,99.265L1507.88,99.326L1507.81,99.393L1507.74,99.469L1507.65,99.553L1507.6,99.604L1507.55,99.655L1507.49,99.709L1507.42,99.766L1507.36,99.826L1507.28,99.888L1507.19,99.952L1507.1,100.018L1507,100.084L1506.89,100.15L1506.78,100.215L1506.65,100.278L1506.52,100.336L1506.39,100.384L1506.3,100.413L1506.23,100.436L1506.15,100.457L1506.07,100.478L1505.95,100.502L1505.84,100.52L1505.73,100.535L1505.63,100.547L1505.54,100.558L1505.44,100.567L1505.34,100.575L1505.24,100.583L1505.14,100.59L1505.03,100.596L1504.92,100.602L1504.81,100.608L1504.57,100.618L1504.33,100.627L1504.07,100.634L1503.81,100.641L1503.53,100.647L1503.26,100.652L1502.97,100.656L1502.69,100.659L1502.4,100.662L1502.11,100.664L1501.56,100.667L1501.02,100.668L1500.53,100.667L1500.09,100.666L1499.72,100.664L1499.44,100.662L1499.2,100.66L1498.3,100.458L1497.57,99.901L1497.14,99.092L1497.1,98.495L1497.09,98.49L1497.06,98.478L1497.02,98.465L1496.99,98.453L1496.95,98.441L1496.91,98.429L1496.87,98.417L1496.82,98.406L1496.78,98.395L1496.73,98.384L1496.68,98.374L1496.64,98.364L1496.59,98.355L1496.54,98.346L1496.49,98.338L1496.44,98.33L1496.39,98.323L1496.34,98.317L1496.28,98.311L1496.23,98.306L1496.18,98.301L1496.13,98.297L1496.08,98.294L1496.03,98.291L1495.98,98.288L1495.93,98.287L1495.88,98.285L1495.84,98.285L1495.78,98.284L1494.31,98.283L1492.08,98.281L1490.69,98.281L1489.14,98.281L1487.44,98.282L1485.58,98.284L1485.48,98.285L1485.39,98.286L1485.3,98.288L1485.2,98.291L1485.12,98.294L1485.03,98.298L1484.94,98.303L1484.86,98.308L1484.78,98.314L1484.7,98.321L1484.62,98.328L1484.54,98.336L1484.47,98.344L1484.39,98.353L1484.33,98.363L1484.26,98.373L1484.19,98.384L1484.12,98.395L1484.06,98.406L1484,98.419L1483.94,98.431L1483.88,98.444L1483.83,98.457L1483.77,98.471L1483.72,98.485L1483.67,98.499L1483.62,98.514L1483.57,98.529L1483.52,98.544L1483.48,98.559L1483.44,98.574L1483.39,98.59L1483.36,98.606L1483.32,98.622L1483.28,98.638L1483.25,98.654L1483.21,98.671L1483.18,98.687L1483.15,98.704L1483.12,98.72L1483.09,98.737L1483.06,98.754L1483.03,98.771L1483.01,98.788L1482.98,98.805L1482.96,98.822L1482.93,98.839L1482.91,98.857L1482.89,98.875L1482.87,98.893L1482.84,98.911L1482.82,98.929L1482.8,98.948L1482.78,98.968L1482.76,98.987L1482.74,99.008L1482.72,99.028L1482.7,99.05L1482.69,99.072L1482.67,99.095L1482.65,99.118L1482.63,99.143L1482.61,99.168L1482.59,99.194L1482.58,99.221L1482.56,99.249L1482.54,99.279L1482.52,99.309L1482.5,99.341L1482.48,99.373L1482.47,99.407L1482.45,99.443L1482.43,99.479L1482.41,99.517L1482.39,99.557L1482.38,99.597L1482.36,99.64L1482.34,99.683L1482.32,99.728L1482.31,99.775L1482.29,99.823L1482.27,99.873L1482.25,99.924L1482.24,99.977L1482.22,100.031L1482.2,100.087L1482.19,100.144L1482.17,100.203L1482.16,100.264L1482.14,100.326L1482.13,100.39L1482.11,100.455L1482.1,100.522L1482.09,100.59L1482.07,100.66L1482.06,100.731L1482.05,100.804L1482.03,100.879L1482.02,100.955L1482.01,101.032L1482,101.111L1481.99,101.192L1481.98,101.274L1481.97,101.357L1481.96,101.442L1481.95,101.529L1481.94,101.617L1481.93,101.707L1481.92,101.797L1481.92,101.89L1481.91,101.984L1481.9,102.079L1481.9,102.176L1481.89,102.274L1481.89,102.373L1481.88,102.474L1481.88,102.577L1481.87,102.678L1481.87,102.892L1481.86,103.11L1481.86,103.332L1481.86,103.56L1481.86,103.799L1481.86,104.079L1481.85,104.418L1481.85,104.81L1481.85,105.253L1481.84,106.287L1481.82,107.511L1481.8,108.911L1481.78,110.475L1481.76,112.189L1481.73,114.041L1481.67,118.106L1481.61,122.565L1481.54,127.315L1481.46,132.25L1481.39,137.265L1481.35,139.771L1481.32,142.258L1481.28,144.712L1481.25,147.121L1481.22,149.472L1481.19,151.752L1481.16,153.947L1481.14,156.045L1481.12,158.032L1481.1,159.896L1481.09,160.776L1481.08,161.621L1481.08,162.429L1481.07,163.197L1481.06,163.924L1481.06,164.609L1481.06,165.249L1481.06,165.844L1481.05,167.302L1481.05,169.354L1481.04,175.07L1481.01,182.665L1480.99,191.81L1480.92,213.443L1480.85,237.347L1480.78,260.9L1480.72,281.482L1480.69,289.839L1480.67,296.47L1480.66,301.047L1480.66,302.462L1480.66,303.236L1480.66,303.335L1480.66,303.431L1480.66,303.526L1480.66,303.62L1480.67,303.712L1480.67,303.803L1480.67,303.892L1480.68,303.98L1480.68,304.067L1480.69,304.153L1480.69,304.237L1480.7,304.32L1480.71,304.402L1480.72,304.483L1480.73,304.562L1480.74,304.64L1480.74,304.716L1480.75,304.791L1480.77,304.865L1480.78,304.938L1480.79,305.009L1480.8,305.079L1480.81,305.148L1480.82,305.216L1480.84,305.282L1480.85,305.347L1480.86,305.41L1480.88,305.473L1480.89,305.534L1480.91,305.594L1480.92,305.652L1480.94,305.71L1480.95,305.766L1480.97,305.821L1480.99,305.874L1481.01,305.927L1481.02,305.978L1481.04,306.028L1481.06,306.077L1481.08,306.124L1481.09,306.171L1481.11,306.216L1481.13,306.26L1481.15,306.303L1481.17,306.345L1481.18,306.386L1481.2,306.425L1481.22,306.464L1481.24,306.501L1481.26,306.538L1481.28,306.573L1481.3,306.608L1481.32,306.641L1481.34,306.674L1481.36,306.706L1481.38,306.736L1481.4,306.766L1481.42,306.795L1481.44,306.823L1481.46,306.851L1481.48,306.877L1481.5,306.903L1481.52,306.928L1481.54,306.953L1481.56,306.976L1481.58,306.999L1481.6,307.022L1481.62,307.044L1481.64,307.065L1481.66,307.086L1481.68,307.106L1481.71,307.126L1481.73,307.145L1481.75,307.164L1481.77,307.182L1481.79,307.2L1481.81,307.217L1481.84,307.235L1481.86,307.251L1481.88,307.268L1481.9,307.284L1481.93,307.3L1481.95,307.315L1481.98,307.331L1482,307.345L1482.03,307.36L1482.05,307.375L1482.08,307.389L1482.1,307.402L1482.13,307.416L1482.16,307.43L1482.18,307.443L1482.21,307.456L1482.24,307.468L1482.27,307.481L1482.3,307.493L1482.33,307.505L1482.37,307.516L1482.4,307.528L1482.43,307.539L1482.46,307.55L1482.5,307.56L1482.53,307.57L1482.57,307.58L1482.61,307.59L1482.64,307.599L1482.68,307.608L1482.72,307.617L1482.76,307.625L1482.8,307.633L1482.84,307.641L1482.88,307.648L1482.92,307.655L1482.97,307.661L1483.01,307.668L1483.06,307.673L1483.1,307.679L1483.15,307.683L1483.2,307.688L1483.25,307.692L1483.3,307.695L1483.34,307.699L1483.39,307.701L1483.45,307.703L1483.5,307.705L1483.55,307.706L1483.61,307.707L1483.66,307.707L1496.24,307.707L1499.36,306.564L1500.1,306.431L1662.03,306.431L1662.79,306.568L1662.81,306.576L1662.88,306.6L1662.99,306.641L1663.06,306.665L1663.15,306.694L1663.24,306.725L1663.34,306.758L1663.46,306.793L1663.58,306.83L1663.7,306.869L1663.84,306.908L1663.98,306.948L1664.12,306.988L1664.27,307.027L1664.43,307.067L1664.59,307.106L1664.67,307.124L1664.75,307.143L1664.83,307.161L1664.91,307.179L1665,307.196L1665.08,307.213L1665.16,307.23L1665.24,307.245L1665.33,307.26L1665.41,307.275L1665.49,307.289L1665.58,307.302L1665.66,307.314L1665.74,307.326L1665.82,307.337L1665.9,307.347L1665.98,307.356L1666.06,307.364L1666.14,307.371L1666.22,307.377L1666.29,307.383L1666.37,307.387L1666.44,307.39L1666.51,307.393L1666.58,307.394L1666.65,307.395L1666.84,307.394L1667.06,307.393L1667.31,307.391L1667.57,307.388L1668.15,307.38L1668.8,307.371L1669.51,307.36L1670.26,307.349L1671.07,307.339L1671.48,307.334L1671.9,307.329L1672.33,307.326L1672.77,307.322L1673.21,307.32L1673.65,307.318L1674.1,307.317L1674.55,307.318L1675,307.319L1675.45,307.321L1675.9,307.325L1676.35,307.33L1676.79,307.337L1677.24,307.345L1677.67,307.355L1678.11,307.367L1678.32,307.374L1678.53,307.381L1678.74,307.388L1678.95,307.396L1679.03,307.399L1679.11,307.401L1679.18,307.403L1679.26,307.403L1679.33,307.402L1679.4,307.401L1679.46,307.399L1679.53,307.397L1679.59,307.394L1679.65,307.39L1679.71,307.385L1679.77,307.38L1679.82,307.374L1679.87,307.368L1679.92,307.362L1679.97,307.354L1680.02,307.347L1680.06,307.339L1680.1,307.331L1680.14,307.322L1680.18,307.314L1680.22,307.305L1680.25,307.295L1680.29,307.286L1680.32,307.277L1680.35,307.267L1680.37,307.258L1680.4,307.248L1680.42,307.239L1680.45,307.229L1680.47,307.22L1680.49,307.211L1680.51,307.202L1680.53,307.192L1680.54,307.184L1680.56,307.175L1680.57,307.166L1680.59,307.157L1680.6,307.149L1680.61,307.14L1680.62,307.132L1680.63,307.123L1680.64,307.115L1680.66,307.106L1680.67,307.097L1680.68,307.088L1680.69,307.078L1680.7,307.068L1680.71,307.058L1680.72,307.046L1680.73,307.035L1680.74,307.023L1680.75,307.01L1680.76,306.995L1680.77,306.981L1680.78,306.965L1680.79,306.948L1680.81,306.93L1680.82,306.911L1680.83,306.891L1680.84,306.869L1680.85,306.846L1680.87,306.822L1680.88,306.796L1680.89,306.769L1680.91,306.74L1680.92,306.71L1680.93,306.678L1680.95,306.645L1680.96,306.61L1680.98,306.573L1680.99,306.535L1681,306.496L1681.02,306.454L1681.03,306.411L1681.04,306.367L1681.06,306.32L1681.07,306.273L1681.08,306.223L1681.1,306.172L1681.11,306.12L1681.12,306.065L1681.13,306.01L1681.14,305.952L1681.15,305.893L1681.17,305.833L1681.18,305.771L1681.19,305.707L1681.2,305.642L1681.21,305.576L1681.22,305.507L1681.23,305.438L1681.24,305.367L1681.25,305.294L1681.26,305.221L1681.26,305.145L1681.27,305.069L1681.28,304.991L1681.29,304.911L1681.29,304.833L1681.31,304.664L1681.32,304.494L1681.33,304.317L1681.34,304.136L1681.35,303.95L1681.35,303.758L1681.36,303.562L1681.37,303.361L1681.37,303.155L1681.37,302.945L1681.37,302.729L1681.38,302.51L1681.38,302.286L1681.38,302.056L1681.38,107.022L1670.55,97.832L1645.82,97.832Z" style="fill:rgb(25,21,56);"/>
        </g>
        <g transform="matrix(1.47101,0,0,1.47101,-977.449,-108.869)">
            <path d="M1528.22,134.337C1528.22,129.34 1528.22,90.386 1528.22,90.386L1637,90.148L1637,156.705C1637,156.705 1637.78,164.289 1628.97,164.861C1620.17,165.434 1547.23,164.861 1540.06,164.861C1532.89,164.861 1528.61,163.225 1528.2,153.698C1527.79,144.172 1528.22,139.333 1528.22,134.337ZM1592.44,105.541L1592.44,160.047L1619.78,160.047L1619.78,105.245L1592.44,105.541Z" style="fill:rgb(25,21,56);"/>
        </g>
        <g transform="matrix(1.47101,0,0,1.57401,-977.449,-139.159)">
            <rect x="1484.11" y="286.497" width="9.568" height="7.587" style="fill:rgb(25,21,56);"/>
        </g>
        <g transform="matrix(1.47101,0,0,1.47101,-977.449,-108.869)">
            <path d="M1498.65,306.68C1498.65,306.68 1498.65,202.524 1498.65,194.944C1498.65,187.364 1500.27,181.081 1509.16,181.081C1518.05,181.081 1645.08,181.081 1652.96,181.081C1660.84,181.081 1664.96,182.215 1664.91,190.995C1664.86,199.775 1664.91,306.44 1664.91,306.44" style="fill:none;stroke:rgb(25,21,56);stroke-width:1.26px;"/>
        </g>
        <g transform="matrix(1.47101,0,0,1.47101,-977.389,-110.547)">
            <path d="M1656.83,196.629C1656.83,193.692 1654.45,191.308 1651.51,191.308L1513.6,191.308C1510.66,191.308 1508.28,193.692 1508.28,196.629L1508.28,288.125C1508.28,291.062 1510.66,293.447 1513.6,293.447L1651.51,293.447C1654.45,293.447 1656.83,291.062 1656.83,288.125L1656.83,196.629Z" style="fill:rgb(25,21,56);"/>
        </g>
        <g transform="matrix(1.47101,0,0,1.47101,-977.449,-107.913)">
            <path d="M1520.36,205.64L1644.17,205.64" style="fill:none;stroke:rgb(237,50,96);stroke-width:1.62px;"/>
        </g>
        <g transform="matrix(1.47101,0,0,1.47101,-977.449,-91.3407)">
            <path d="M1520.36,205.64L1644.17,205.64" style="fill:none;stroke:rgb(237,50,96);stroke-width:1.62px;"/>
        </g>
        <g transform="matrix(1.47101,0,0,1.47101,-977.449,-74.5572)">
            <path d="M1520.36,205.64L1644.17,205.64" style="fill:none;stroke:rgb(237,50,96);stroke-width:1.62px;"/>
        </g>
        <g transform="matrix(1.47101,0,0,1.47101,-977.449,-57.8762)">
            <path d="M1520.36,205.64L1644.17,205.64" style="fill:none;stroke:rgb(237,50,96);stroke-width:1.62px;"/>
        </g>
        <g transform="matrix(1.47101,0,0,1.47101,-977.396,-40.3186)">
            <path d="M1520.36,205.64L1644.17,205.64" style="fill:none;stroke:rgb(237,50,96);stroke-width:1.62px;"/>
        </g>
        <g transform="matrix(1.47101,0,0,1.47101,-977.396,-24.1156)">
            <path d="M1520.36,205.64L1644.17,205.64" style="fill:none;stroke:rgb(237,50,96);stroke-width:1.62px;"/>
        </g>
        <g transform="matrix(1.47101,0,0,1.47101,-977.396,-6.99786)">
            <path d="M1520.36,205.64L1644.17,205.64" style="fill:none;stroke:rgb(237,50,96);stroke-width:1.62px;"/>
        </g>
        <g transform="matrix(0.123387,0,0,0.119863,1186.8,-25.0697)">
            <g>
                <g>
                    <g transform="matrix(0.24,0,0,0.24,0,0)">
                        <path d="M3829.43,3253.89C3829.43,3253.89 3838.77,3194.61 3878.81,3158.23C3918.85,3121.86 4039.37,3017.01 4093.51,2988.65C4147.66,2960.28 4386.12,2842.45 4588.99,2955.7C4791.85,3068.94 4956.74,3254.49 4960.1,3333.29C4963.47,3412.09 4939.79,3567.81 4951.11,3628.87C4962.42,3689.94 4955.18,3730.91 4939.39,3756.63C4923.6,3782.36 4876,3795.12 4878.54,3871.39C4881.08,3947.66 4871.73,3985.05 4838.53,4011.85C4805.33,4038.65 4740.97,4172.98 4688.86,4158.56C4636.76,4144.14 4586.64,4119.04 4561.69,4170.17C4536.73,4221.3 4510.85,4328.73 4447.98,4352.02C4385.11,4375.3 4311.35,4367.23 4204.67,4325.48C4097.98,4283.72 4090.54,4257.78 4073.04,4197.16C4055.53,4136.53 4022.53,4094.87 3964.77,4082.18C3907.01,4069.5 3861.69,4058.37 3836.45,3998.69C3811.21,3939.01 3771.11,3901.43 3785.49,3863.99C3799.88,3826.54 3829.72,3815.12 3823.95,3756.63C3818.18,3698.14 3831.32,3691.29 3810.92,3626.91C3790.52,3562.53 3814.14,3294.85 3829.43,3253.89Z" style="fill:rgb(237,50,96);stroke:rgb(237,50,96);stroke-width:36.3px;"/>
                    </g>
                    <g transform="matrix(0.24,0,0,0.24,0,0)">
                        <path d="M3885.95,3791.42C3885.95,3791.42 3903.9,3850.43 3943.94,3863.99C3983.98,3877.55 4045.04,3838.69 4079.56,3844.08C4114.08,3849.46 4155.23,3815.51 4174.67,3788.84C4194.12,3762.16 4192.49,3666.57 4167.72,3636.16C4142.94,3605.74 4129.18,3601.29 4112.47,3571.5C4095.76,3541.71 4078.61,3545.4 4056.06,3556.49C4033.5,3567.59 3959.09,3543.53 3930.27,3580.28C3901.46,3617.03 3875.73,3681.03 3875.81,3709.76C3875.88,3738.49 3885.95,3791.42 3885.95,3791.42Z" style="fill:rgb(254,213,79);"/>
                    </g>
                    <g transform="matrix(0.24,0,0,0.24,2.44706,-3.52344)">
                        <path d="M4091.69,4327.99C4091.69,4327.99 4090.61,4397.28 4105.7,4403.88C4120.79,4410.48 4156.06,4408.7 4156.35,4405.26C4156.64,4401.83 4149.77,4344.4 4149.08,4330.31C4148.38,4316.21 4083.38,4309.74 4091.69,4327.99Z" style="fill:rgb(237,50,96);"/>
                    </g>
                    <g transform="matrix(0.24,0,0,0.327056,0,-377.34)">
                        <path d="M4184.12,4334.45C4184.12,4334.45 4178.31,4375.69 4181.64,4391.22C4184.96,4406.74 4208.79,4413.16 4225.95,4408.34C4243.12,4403.51 4232.04,4394.48 4227.08,4362.57C4222.12,4330.66 4202.59,4340.69 4184.12,4334.45" style="fill:rgb(237,50,96);"/>
                    </g>
                    <g transform="matrix(0.24,0,0,0.353832,0,-496.056)">
                        <path d="M4256.99,4364.87L4262.51,4409.91C4262.51,4409.91 4306.85,4413.96 4309.33,4409.91C4311.82,4405.85 4309.52,4372.18 4309.52,4372.18C4309.52,4372.18 4250.01,4345.45 4256.99,4364.87" style="fill:rgb(237,50,96);"/>
                    </g>
                    <g transform="matrix(0.24,0,0,0.401838,-0.932292,-709.192)">
                        <path d="M4345.69,4384.75L4344.32,4424.27C4344.32,4424.27 4378.96,4424.12 4395.44,4425.07C4411.91,4426.03 4418.23,4390.71 4418.93,4384.75C4419.63,4378.8 4345.69,4384.75 4345.69,4384.75" style="fill:rgb(237,50,96);"/>
                    </g>
                    <g transform="matrix(0.24,0,0,0.26203,-3.4362,-96.375)">
                        <path d="M4483.2,4364.87C4483.2,4364.87 4493.29,4413.68 4483.72,4425.09C4474.14,4436.5 4461.72,4431.88 4454.43,4425.09C4447.15,4418.3 4448.7,4395.9 4450.57,4382.11C4452.44,4368.32 4483.2,4364.87 4483.2,4364.87Z" style="fill:rgb(237,50,96);"/>
                    </g>
                    <g transform="matrix(0.24,0,0,0.24,0,0)">
                        <path d="M4377.74,3739.6C4377.74,3739.6 4395.49,3820.6 4415.05,3837.32C4434.61,3854.05 4472.24,3880.43 4497.58,3897.5C4522.93,3914.58 4594.03,3938.08 4624.17,3932.74C4654.31,3927.4 4704.55,3899.29 4711.43,3863.99C4718.32,3828.69 4708.61,3766.74 4720.23,3749.24C4731.85,3731.73 4671.65,3645.83 4633.06,3636.16C4594.47,3626.48 4577.48,3614.73 4540.87,3603.37C4504.26,3592.01 4492.51,3633.01 4462.15,3636.16C4431.79,3639.3 4368.47,3684.8 4377.74,3739.6Z" style="fill:rgb(254,213,79);"/>
                    </g>
                    <g transform="matrix(0.24,0,0,0.24,0,0)">
                        <path d="M4187.94,3917.97C4187.94,3917.97 4216.2,3893.25 4226.9,3866.88C4237.59,3840.5 4251.1,3827.03 4274.6,3838.73C4298.1,3850.42 4311.63,3866.07 4323.23,3886.25C4334.84,3906.43 4353.82,3969.12 4357.6,3991.42C4361.38,4013.72 4356.51,4071.35 4338.33,4083.96C4320.15,4096.57 4292.85,4107.03 4277.47,4119.32C4262.1,4131.6 4246.68,4130.05 4238.02,4119.8C4229.35,4109.55 4196.18,4111.86 4187.94,4091.51C4179.69,4071.16 4168.51,4049.2 4166.48,4020.51C4164.44,3991.83 4169.61,3962.4 4179,3952.62C4188.38,3942.83 4186.99,3923.81 4187.94,3917.97Z" style="fill:rgb(254,213,79);"/>
                    </g>
                </g>
            </g>
        </g>
    </g>
</svg>
