<?xml version="1.0" encoding="UTF-8" standalone="no"?>
<!DOCTYPE svg PUBLIC "-//W3C//DTD SVG 1.1//EN" "http://www.w3.org/Graphics/SVG/1.1/DTD/svg11.dtd">
<svg
  width="48"
  height="56"
  version="1.1"
  xmlns="http://www.w3.org/2000/svg"
  xmlns:xlink="http://www.w3.org/1999/xlink"
  xml:space="preserve"
  style="fill-rule:evenodd;clip-rule:evenodd;stroke-linecap:round;stroke-linejoin:round;stroke-miterlimit:1.5;">
<path d="M39 4c4.969 0 9 4.031 9 9v30c0 4.969-4.031 9-9 9h-30c-4.969 0-9-4.031-9-9v-30c0-4.969 4.031-9 9-9h30zM15.594 15.469h-11.594v24.594h11.938c4.469 0 8.656-2.125 8.656-7.125 0-3.094-1.469-5.375-4.469-6.25 2.188-1.063 3.344-2.656 3.344-5.125 0-4.906-3.656-6.094-7.875-6.094zM14.906 25.406h-5.5v-5.75h5.094c1.938 0 3.719 0.531 3.719 2.813 0 2.094-1.375 2.937-3.312 2.937zM15.187 35.875h-5.781v-6.781h5.906c2.375 0 3.875 1.031 3.875 3.531s-1.781 3.25-4 3.25zM35.5 36.875c-2.875 0-4.375-1.687-4.375-4.531h12.844c0.031-0.312 0.031-0.625 0.031-0.938 0-5.25-3.094-9.656-8.687-9.656-5.406 0-9.125 4.094-9.125 9.437 0 5.562 3.5 9.344 9.125 9.344 4.281 0 7.031-1.906 8.344-5.969h-4.312c-0.469 1.5-2.375 2.313-3.844 2.313zM35.188 25.438c2.437 0 3.656 1.469 3.875 3.812h-7.938c0.156-2.344 1.719-3.812 4.063-3.812zM30.125 17.125h9.969v2.406h-9.969v-2.406z" style="fill:rgb(250, 250, 250);stroke:none;"></path>
</svg>
