<?xml version="1.0" encoding="UTF-8" standalone="no"?>
<!DOCTYPE svg PUBLIC "-//W3C//DTD SVG 1.1//EN" "http://www.w3.org/Graphics/SVG/1.1/DTD/svg11.dtd">
<svg width="100%" height="100%" viewBox="0 0 30 30" version="1.1" xmlns="http://www.w3.org/2000/svg" xmlns:xlink="http://www.w3.org/1999/xlink" xml:space="preserve" xmlns:serif="http://www.serif.com/" style="fill-rule:evenodd;clip-rule:evenodd;stroke-linejoin:round;stroke-miterlimit:1.41421;">
    <g transform="matrix(0.0595019,0,0,0.0595019,-0.0127535,-0.000853142)">
        <path d="M195.2,184.2L188,184.2L140,184.2L140,228.2L191.6,228.2C200.8,228.2 208.8,225.8 208.8,204.6C208.8,183.4 195.2,184.2 195.2,184.2Z" style="fill:rgb(234,41,85);fill-rule:nonzero;"/>
    </g>
    <g transform="matrix(0.0595019,0,0,0.0595019,-0.0127535,-0.000853142)">
        <path d="M195.2,260.2L140,260.2L140,316.2L192,316.2C200,316.2 215.2,313 215.2,289C215.6,260.6 195.2,260.2 195.2,260.2Z" style="fill:rgb(234,41,85);fill-rule:nonzero;"/>
    </g>
    <g transform="matrix(0.0595019,0,0,0.0595019,-0.0127535,-0.000853142)">
        <path d="M377.6,0.2L126.4,0.2C56.8,0.2 0,57 0,126.6L0,378.2C0,447.4 56.8,504.2 126.4,504.2L378,504.2C447.6,504.2 504.4,447.4 504.4,377.8L504.4,126.6C504,57 447.2,0.2 377.6,0.2ZM296,160.2L380,160.2L380,180.2L296,180.2L296,160.2ZM256.8,291.8C256.8,354.2 195.2,356.2 195.2,356.2L138.4,356.2L136.8,356.2L96,356.2L96,148.2L194.8,148.2C225.6,148.2 250,165.8 250,202.6C250,239.4 220.4,241.4 220.4,241.4C259.6,241 256.8,291.8 256.8,291.8ZM407.6,288.2L306.4,288.2C306.4,328.2 340.8,325 340.8,325C373.2,325 372,304.2 372,304.2L406.4,304.2C406.4,360.2 339.6,357.8 339.6,357.8C259.6,357.8 264.8,279 264.8,279C264.8,279 264.8,199.8 339.6,199.8C418.4,199.4 407.6,288.2 407.6,288.2Z" style="fill:rgb(234,41,85);fill-rule:nonzero;"/>
    </g>
    <g transform="matrix(0.0595019,0,0,0.0595019,-0.0127535,-0.000853142)">
        <path d="M340.4,228.6C310.4,228.6 306,260.2 306,260.2L370,260.2C370,260.2 370.4,228.6 340.4,228.6Z" style="fill:rgb(234,41,85);fill-rule:nonzero;"/>
    </g>
</svg>
