<?xml version="1.0" encoding="UTF-8" standalone="no"?>
<!DOCTYPE svg PUBLIC "-//W3C//DTD SVG 1.1//EN" "http://www.w3.org/Graphics/SVG/1.1/DTD/svg11.dtd">
<svg width="100%" height="100%" viewBox="0 0 40 40" version="1.1" xmlns="http://www.w3.org/2000/svg" xmlns:xlink="http://www.w3.org/1999/xlink" xml:space="preserve" xmlns:serif="http://www.serif.com/" style="fill-rule:evenodd;clip-rule:evenodd;stroke-linecap:round;stroke-linejoin:round;stroke-miterlimit:1.5;">
    <g transform="matrix(0.107355,0,0,0.104289,-92.33,-71.4831)">
        <g transform="matrix(0.24,0,0,0.24,0,0)">
            <path d="M3829.43,3253.89C3829.43,3253.89 3838.77,3194.61 3878.81,3158.23C3918.85,3121.86 4039.37,3017.01 4093.51,2988.65C4147.66,2960.28 4386.12,2842.45 4588.99,2955.7C4791.85,3068.94 4956.74,3254.49 4960.1,3333.29C4963.47,3412.09 4939.79,3567.81 4951.11,3628.87C4962.42,3689.94 4955.18,3730.91 4939.39,3756.63C4923.6,3782.36 4876,3795.12 4878.54,3871.39C4881.08,3947.66 4871.73,3985.05 4838.53,4011.85C4805.33,4038.65 4740.97,4172.98 4688.86,4158.56C4636.76,4144.14 4586.64,4119.04 4561.69,4170.17C4536.73,4221.3 4510.85,4328.73 4447.98,4352.02C4385.11,4375.3 4311.35,4367.23 4204.67,4325.48C4097.98,4283.72 4090.54,4257.78 4073.04,4197.16C4055.53,4136.53 4022.53,4094.87 3964.77,4082.18C3907.01,4069.5 3861.69,4058.37 3836.45,3998.69C3811.21,3939.01 3771.11,3901.43 3785.49,3863.99C3799.88,3826.54 3829.72,3815.12 3823.95,3756.63C3818.18,3698.14 3831.32,3691.29 3810.92,3626.91C3790.52,3562.53 3814.14,3294.85 3829.43,3253.89Z" style="fill:rgb(237,50,96);stroke:rgb(237,50,96);stroke-width:59.06px;"/>
        </g>
        <g transform="matrix(0.24,0,0,0.24,0,0)">
            <path d="M3885.95,3791.42C3885.95,3791.42 3903.9,3850.43 3943.94,3863.99C3983.98,3877.55 4045.04,3838.69 4079.56,3844.08C4114.08,3849.46 4155.23,3815.51 4174.67,3788.84C4194.12,3762.16 4192.49,3666.57 4167.72,3636.16C4142.94,3605.74 4129.18,3601.29 4112.47,3571.5C4095.76,3541.71 4078.61,3545.4 4056.06,3556.49C4033.5,3567.59 3959.09,3543.53 3930.27,3580.28C3901.46,3617.03 3875.73,3681.03 3875.81,3709.76C3875.88,3738.49 3885.95,3791.42 3885.95,3791.42Z" style="fill:rgb(254,213,79);"/>
        </g>
        <g transform="matrix(0.24,0,0,0.24,2.44706,-3.52344)">
            <path d="M4091.69,4327.99C4091.69,4327.99 4090.61,4397.28 4105.7,4403.88C4120.79,4410.48 4156.06,4408.7 4156.35,4405.26C4156.64,4401.83 4149.77,4344.4 4149.08,4330.31C4148.38,4316.21 4083.38,4309.74 4091.69,4327.99Z" style="fill:rgb(237,50,96);"/>
        </g>
        <g transform="matrix(0.24,0,0,0.327056,0,-377.34)">
            <path d="M4184.12,4334.45C4184.12,4334.45 4178.31,4375.69 4181.64,4391.22C4184.96,4406.74 4208.79,4413.16 4225.95,4408.34C4243.12,4403.51 4232.04,4394.48 4227.08,4362.57C4222.12,4330.66 4202.59,4340.69 4184.12,4334.45" style="fill:rgb(237,50,96);"/>
        </g>
        <g transform="matrix(0.24,0,0,0.353832,0,-496.056)">
            <path d="M4256.99,4364.87L4262.51,4409.91C4262.51,4409.91 4306.85,4413.96 4309.33,4409.91C4311.82,4405.85 4309.52,4372.18 4309.52,4372.18C4309.52,4372.18 4250.01,4345.45 4256.99,4364.87" style="fill:rgb(237,50,96);"/>
        </g>
        <g transform="matrix(0.24,0,0,0.401838,-0.932292,-709.192)">
            <path d="M4345.69,4384.75L4344.32,4424.27C4344.32,4424.27 4378.96,4424.12 4395.44,4425.07C4411.91,4426.03 4418.23,4390.71 4418.93,4384.75C4419.63,4378.8 4345.69,4384.75 4345.69,4384.75" style="fill:rgb(237,50,96);"/>
        </g>
        <g transform="matrix(0.24,0,0,0.26203,-3.4362,-96.375)">
            <path d="M4483.2,4364.87C4483.2,4364.87 4493.29,4413.68 4483.72,4425.09C4474.14,4436.5 4461.72,4431.88 4454.43,4425.09C4447.15,4418.3 4448.7,4395.9 4450.57,4382.11C4452.44,4368.32 4483.2,4364.87 4483.2,4364.87Z" style="fill:rgb(237,50,96);"/>
        </g>
        <g transform="matrix(0.24,0,0,0.24,0,0)">
            <path d="M4377.74,3739.6C4377.74,3739.6 4395.49,3820.6 4415.05,3837.32C4434.61,3854.05 4472.24,3880.43 4497.58,3897.5C4522.93,3914.58 4594.03,3938.08 4624.17,3932.74C4654.31,3927.4 4704.55,3899.29 4711.43,3863.99C4718.32,3828.69 4708.61,3766.74 4720.23,3749.24C4731.85,3731.73 4671.65,3645.83 4633.06,3636.16C4594.47,3626.48 4577.48,3614.73 4540.87,3603.37C4504.26,3592.01 4492.51,3633.01 4462.15,3636.16C4431.79,3639.3 4368.47,3684.8 4377.74,3739.6Z" style="fill:rgb(254,213,79);"/>
        </g>
        <g transform="matrix(0.24,0,0,0.24,0,0)">
            <path d="M4187.94,3917.97C4187.94,3917.97 4216.2,3893.25 4226.9,3866.88C4237.59,3840.5 4251.1,3827.03 4274.6,3838.73C4298.1,3850.42 4311.63,3866.07 4323.23,3886.25C4334.84,3906.43 4353.82,3969.12 4357.6,3991.42C4361.38,4013.72 4356.51,4071.35 4338.33,4083.96C4320.15,4096.57 4292.85,4107.03 4277.47,4119.32C4262.1,4131.6 4246.68,4130.05 4238.02,4119.8C4229.35,4109.55 4196.18,4111.86 4187.94,4091.51C4179.69,4071.16 4168.51,4049.2 4166.48,4020.51C4164.44,3991.83 4169.61,3962.4 4179,3952.62C4188.38,3942.83 4186.99,3923.81 4187.94,3917.97Z" style="fill:rgb(254,213,79);"/>
        </g>
    </g>
</svg>
