<!-- Generated by IcoMoon.io -->
<svg version="1.1" xmlns="http://www.w3.org/2000/svg" width="48" height="56" viewBox="0 0 48 56">
<title>youtube</title>
<path d="M30.344 38.875v6.594c0 1.406-0.406 2.094-1.219 2.094-0.469 0-0.938-0.219-1.406-0.687v-9.406c0.469-0.469 0.938-0.687 1.406-0.687 0.812 0 1.219 0.719 1.219 2.094zM40.906 38.906v1.438h-2.813v-1.438c0-1.406 0.469-2.125 1.406-2.125s1.406 0.719 1.406 2.125zM10.719 32.094h3.344v-2.937h-9.75v2.937h3.281v17.781h3.125v-17.781zM19.719 49.875h2.781v-15.438h-2.781v11.813c-0.625 0.875-1.219 1.313-1.781 1.313-0.375 0-0.594-0.219-0.656-0.656-0.031-0.094-0.031-0.438-0.031-1.094v-11.375h-2.781v12.219c0 1.094 0.094 1.813 0.25 2.281 0.25 0.781 0.906 1.156 1.813 1.156 1 0 2.062-0.625 3.188-1.906v1.687zM33.125 45.25v-6.156c0-1.438-0.063-2.469-0.281-3.094-0.344-1.156-1.125-1.75-2.219-1.75-1.031 0-2 0.563-2.906 1.687v-6.781h-2.781v20.719h2.781v-1.5c0.938 1.156 1.906 1.719 2.906 1.719 1.094 0 1.875-0.594 2.219-1.719 0.219-0.656 0.281-1.687 0.281-3.125zM43.687 44.937v-0.406h-2.844c0 1.125-0.031 1.75-0.063 1.906-0.156 0.75-0.563 1.125-1.25 1.125-0.969 0-1.438-0.719-1.438-2.156v-2.719h5.594v-3.219c0-1.656-0.281-2.844-0.844-3.625-0.812-1.063-1.906-1.594-3.312-1.594-1.438 0-2.531 0.531-3.344 1.594-0.594 0.781-0.875 1.969-0.875 3.625v5.406c0 1.656 0.312 2.875 0.906 3.625 0.812 1.063 1.906 1.594 3.375 1.594s2.625-0.563 3.375-1.656c0.344-0.5 0.594-1.063 0.656-1.687 0.063-0.281 0.063-0.906 0.063-1.813zM24.688 16.406v-6.563c0-1.438-0.406-2.156-1.344-2.156-0.906 0-1.344 0.719-1.344 2.156v6.563c0 1.438 0.438 2.188 1.344 2.188 0.938 0 1.344-0.75 1.344-2.188zM47.156 39.875c0 3.594-0.031 7.438-0.812 10.938-0.594 2.469-2.594 4.281-5 4.531-5.75 0.656-11.563 0.656-17.344 0.656s-11.594 0-17.344-0.656c-2.406-0.25-4.438-2.062-5-4.531-0.812-3.5-0.812-7.344-0.812-10.938v0c0-3.625 0.031-7.438 0.812-10.938 0.594-2.469 2.594-4.281 5.031-4.563 5.719-0.625 11.531-0.625 17.312-0.625s11.594 0 17.344 0.625c2.406 0.281 4.438 2.094 5 4.563 0.812 3.5 0.812 7.312 0.812 10.938zM15.969 0h3.188l-3.781 12.469v8.469h-3.125v-8.469c-0.281-1.531-0.906-3.719-1.906-6.625-0.687-1.938-1.375-3.906-2.031-5.844h3.312l2.219 8.219zM27.531 10.406v5.469c0 1.656-0.281 2.906-0.875 3.688-0.781 1.063-1.875 1.594-3.312 1.594-1.406 0-2.5-0.531-3.281-1.594-0.594-0.812-0.875-2.031-0.875-3.688v-5.469c0-1.656 0.281-2.875 0.875-3.656 0.781-1.063 1.875-1.594 3.281-1.594 1.438 0 2.531 0.531 3.312 1.594 0.594 0.781 0.875 2 0.875 3.656zM38 5.344v15.594h-2.844v-1.719c-1.125 1.313-2.188 1.938-3.219 1.938-0.906 0-1.562-0.375-1.844-1.156-0.156-0.469-0.25-1.219-0.25-2.344v-12.313h2.844v11.469c0 0.656 0 1.031 0.031 1.094 0.063 0.438 0.281 0.687 0.656 0.687 0.563 0 1.156-0.438 1.781-1.344v-11.906h2.844z"></path>
</svg>
